name C:/MyDriveSym/Projects/mobilecap/Data\Session20210813_0002\mocap\ForceDataProcessed\walking2_forces.mot
datacolumns 19
datarows 19
range 0.75450000 0.76350000
endheader 
time	R_ground_force_vx	R_ground_force_vy	R_ground_force_vz	R_ground_force_px	R_ground_force_py	R_ground_force_pz	R_ground_torque_x	R_ground_torque_y	R_ground_torque_z	L_ground_force_vx	L_ground_force_vy	L_ground_force_vz	L_ground_force_px	L_ground_force_py	L_ground_force_pz	L_ground_torque_x	L_ground_torque_y	L_ground_torque_z	
          0.75450000	          0.00000000	          0.00000000	          0.00000000	          0.47320300	          0.00000000	         -0.12137300	          0.00000000	          0.00000000	          0.00000000	        -99.78828800	        792.21246500	          1.28117400	          0.90285800	          0.00600000	         -0.18300200	          0.00000000	         -1.65802300	          0.00000000	
          0.75500000	          0.00000000	          0.00000000	          0.00000000	          0.47436100	          0.00000000	         -0.12143300	          0.00000000	          0.00000000	          0.00000000	        -99.53524700	        792.21450300	          1.31093200	          0.90296000	          0.00600000	         -0.18303800	          0.00000000	         -1.65949000	          0.00000000	
          0.75550000	          0.00000000	          0.00000000	          0.00000000	          0.47551900	          0.00000000	         -0.12149200	          0.00000000	          0.00000000	          0.00000000	        -99.28089300	        792.20760000	          1.34013600	          0.90306200	          0.00600000	         -0.18307300	          0.00000000	         -1.66086200	          0.00000000	
          0.75600000	          0.00000000	          0.00000000	          0.00000000	          0.47667700	          0.00000000	         -0.12155100	          0.00000000	          0.00000000	          0.00000000	        -99.02524700	        792.19180100	          1.36879200	          0.90316500	          0.00600000	         -0.18310900	          0.00000000	         -1.66213800	          0.00000000	
          0.75650000	          0.00000000	          0.00000000	          0.00000000	          0.47783500	          0.00000000	         -0.12161000	          0.00000000	          0.00000000	          0.00000000	        -98.76833100	        792.16715100	          1.39691000	          0.90326700	          0.00600000	         -0.18314400	          0.00000000	         -1.66331800	          0.00000000	
          0.75700000	          0.00000000	          0.00000000	          0.00000000	          0.47899300	          0.00000000	         -0.12166900	          0.00000000	          0.00000000	          0.00000000	        -98.51016400	        792.13369600	          1.42449700	          0.90336900	          0.00600000	         -0.18318000	          0.00000000	         -1.66440200	          0.00000000	
          0.75750000	          0.00000000	          0.00000000	          0.00000000	          0.48015100	          0.00000000	         -0.12172800	          0.00000000	          0.00000000	          0.00000000	        -98.25076700	        792.09148200	          1.45155900	          0.90347100	          0.00600000	         -0.18321600	          0.00000000	         -1.66538900	          0.00000000	
          0.75800000	          0.00000000	          0.00000000	          0.00000000	          0.48130900	          0.00000000	         -0.12178700	          0.00000000	          0.00000000	          0.00000000	        -97.99016000	        792.04055400	          1.47810600	          0.90357300	          0.00600000	         -0.18325100	          0.00000000	         -1.66628100	          0.00000000	
          0.75850000	          0.00000000	          0.00000000	          0.00000000	          0.48246600	          0.00000000	         -0.12184700	          0.00000000	          0.00000000	          0.00000000	        -97.72836400	        791.98095900	          1.50414300	          0.90367500	          0.00600000	         -0.18328700	          0.00000000	         -1.66707700	          0.00000000	
          0.75900000	          0.00000000	          0.00000000	          0.00000000	          0.48362400	          0.00000000	         -0.12190600	          0.00000000	          0.00000000	          0.00000000	        -97.46539900	        791.91274200	          1.52967900	          0.90377700	          0.00600000	         -0.18332300	          0.00000000	         -1.66777600	          0.00000000	
          0.75950000	          0.00000000	          0.00000000	          0.00000000	          0.48478200	          0.00000000	         -0.12196500	          0.00000000	          0.00000000	          0.00000000	        -97.20128300	        791.83595200	          1.55472000	          0.90387900	          0.00600000	         -0.18335900	          0.00000000	         -1.66837900	          0.00000000	
          0.76000000	          0.00000000	          0.00000000	          0.00000000	          0.48594000	          0.00000000	         -0.12202400	          0.00000000	          0.00000000	          0.00000000	        -96.93603800	        791.75063300	          1.57927300	          0.90398100	          0.00600000	         -0.18339500	          0.00000000	         -1.66888600	          0.00000000	
          0.76050000	          0.00000000	          0.00000000	          0.00000000	          0.48709800	          0.00000000	         -0.12208300	          0.00000000	          0.00000000	          0.00000000	        -96.66968300	        791.65683400	          1.60334500	          0.90408300	          0.00600000	         -0.18343100	          0.00000000	         -1.66929600	          0.00000000	
          0.76100000	          0.00000000	          0.00000000	          0.00000000	          0.48825600	          0.00000000	         -0.12214200	          0.00000000	          0.00000000	          0.00000000	        -96.40223700	        791.55460100	          1.62694300	          0.90418500	          0.00600000	         -0.18346700	          0.00000000	         -1.66960900	          0.00000000	
          0.76150000	          0.00000000	          0.00000000	          0.00000000	          0.48941400	          0.00000000	         -0.12220100	          0.00000000	          0.00000000	          0.00000000	        -96.13372000	        791.44398200	          1.65007400	          0.90428700	          0.00600000	         -0.18350300	          0.00000000	         -1.66982700	          0.00000000	
          0.76200000	          0.00000000	          0.00000000	          0.00000000	          0.49057200	          0.00000000	         -0.12226000	          0.00000000	          0.00000000	          0.00000000	        -95.86415100	        791.32502400	          1.67274400	          0.90438900	          0.00600000	         -0.18353900	          0.00000000	         -1.66994700	          0.00000000	
          0.76250000	          0.00000000	          0.00000000	          0.00000000	          0.49173000	          0.00000000	         -0.12232000	          0.00000000	          0.00000000	          0.00000000	        -95.59354900	        791.19777500	          1.69496000	          0.90449100	          0.00600000	         -0.18357500	          0.00000000	         -1.66997100	          0.00000000	
          0.76300000	          0.00000000	          0.00000000	          0.00000000	          0.49288800	          0.00000000	         -0.12237900	          0.00000000	          0.00000000	          0.00000000	        -95.32193400	        791.06228300	          1.71672700	          0.90459200	          0.00600000	         -0.18361200	          0.00000000	         -1.66989800	          0.00000000	
          0.76350000	          0.00000000	          0.00000000	          0.00000000	          0.49404600	          0.00000000	         -0.12243800	          0.00000000	          0.00000000	          0.00000000	        -95.04932500	        790.91859500	          1.73805200	          0.90469400	          0.00600000	         -0.18364800	          0.00000000	         -1.66972900	          0.00000000	
